Coordinates
version=1
nRows=24
nColumns=24
inDegrees=yes

Units are S.I. units (second, meters, Newtons, ...)
Angles are in degrees.

endheader
time	pelvis_tilt	pelvis_list	pelvis_rotation	pelvis_tx	pelvis_ty	pelvis_tz	hip_flexion_r	hip_adduction_r	hip_rotation_r	knee_angle_r	ankle_angle_r	subtalar_angle_r	mtp_angle_r	hip_flexion_l	hip_adduction_l	hip_rotation_l	knee_angle_l	ankle_angle_l	subtalar_angle_l	mtp_angle_l	lumbar_extension	lumbar_bending	lumbar_rotation
      3.70500000	     -1.44943158	     -1.52458493	     -9.83703999	     -0.79187536	      0.90223901	      0.24466807	    -11.44011897	      4.51506752	      9.81999560	    -24.04347577	     25.32536702	     -6.39440971	      0.00000000	     31.28956888	     -2.37176146	     -1.95464712	    -13.34230228	     10.33141098	    -11.68011886	      0.00000000	    -12.39204189	     -2.62592314	      3.65572422
      3.71000000	     -1.44992024	     -1.19723720	     -9.77652396	     -0.78334719	      0.90127502	      0.24422556	    -11.39819247	      4.02137241	      9.28555538	    -25.02528323	     24.96210351	     -5.68281825	      0.00000000	     31.60434925	     -1.99037321	     -2.36386028	    -14.56375335	      9.73608771	    -12.06119641	      0.00000000	    -12.27218791	     -3.03991314	      3.58202643
      3.71500000	     -1.46418506	     -0.84343787	     -9.70721388	     -0.77488316	      0.90040400	      0.24377898	    -11.25928266	      3.49506039	      8.67409469	    -26.12802699	     24.53329088	     -4.88835955	      0.00000000	     31.95205846	     -1.58834912	     -2.73623223	    -15.83877766	      9.07040894	    -12.40848359	      0.00000000	    -12.14908043	     -3.49337050	      3.49294781
      3.72000000	     -1.49205754	     -0.44890191	     -9.61457481	     -0.76642182	      0.89963209	      0.24329821	    -11.04174747	      2.93231900	      8.05012840	    -27.32367558	     23.98671625	     -4.11020726	      0.00000000	     32.32795302	     -1.14206375	     -3.07489349	    -17.15270102	      8.39343304	    -12.69000818	      0.00000000	    -12.01042545	     -3.99030233	      3.37154075
      3.72500000	     -1.53185827	     -0.03399109	     -9.52179879	     -0.75800856	      0.89892784	      0.24277462	    -10.72178524	      2.33967624	      7.39032250	    -28.65682295	     23.34784040	     -3.30443363	      0.00000000	     32.73012494	     -0.67406753	     -3.36981005	    -18.50596073	      7.76722744	    -12.94765693	      0.00000000	    -11.86975114	     -4.50560399	      3.23468537
      3.73000000	     -1.58417630	      0.41312063	     -9.42147262	     -0.74959185	      0.89833809	      0.24229996	    -10.33405869	      1.71664700	      6.73526876	    -30.05653215	     22.57233651	     -2.54259073	      0.00000000	     33.15516314	     -0.18229780	     -3.64404403	    -19.89423863	      7.17366214	    -13.10553638	      0.00000000	    -11.71096251	     -5.07314276	      3.07877267
      3.73500000	     -1.64952833	      0.86443710	     -9.30318371	     -0.74119982	      0.89782612	      0.24175954	     -9.86190077	      1.08831931	      6.09792728	    -31.56328676	     21.66061470	     -1.78473380	      0.00000000	     33.59151309	      0.32528325	     -3.88481101	    -21.28483696	      6.63660866	    -13.21797888	      0.00000000	    -11.54829411	     -5.63250112	      2.94643457
      3.74000000	     -1.68526761	      1.36143766	     -9.16092801	     -0.73268906	      0.89743963	      0.24132155	     -9.38564158	      0.42850426	      5.49972621	    -33.11438282	     20.56740569	     -1.19344186	      0.00000000	     33.97852483	      0.87368227	     -4.15891975	    -22.66287143	      6.24060431	    -13.15746248	      0.00000000	    -11.39622184	     -6.27006229	      2.72764831
      3.74500000	     -1.73782802	      1.83841374	     -9.05629506	     -0.72423841	      0.89707340	      0.24084567	     -8.80294171	     -0.24299453	      4.88972924	    -34.78610246	     19.38912375	     -0.53663759	      0.00000000	     34.36416126	      1.39593836	     -4.38157356	    -24.02266910	      5.91517509	    -13.13516507	      0.00000000	    -11.23481033	     -6.87685872	      2.56589622
      3.75000000	     -1.77603395	      2.30658300	     -8.94454307	     -0.71576475	      0.89677252	      0.24033989	     -8.18370298	     -0.90450788	      4.33180969	    -36.52458977	     18.04877377	      0.00182363	      0.00000000	     34.69610195	      1.92070286	     -4.59060847	    -25.32152381	      5.68120779	    -13.10174303	      0.00000000	    -11.09105475	     -7.46511532	      2.41252706
      3.75500000	     -1.82845771	      2.75613886	     -8.86030983	     -0.70736509	      0.89645806	      0.23984435	     -7.47522101	     -1.55782702	      3.81998554	    -38.35306991	     16.63263479	      0.51187688	      0.00000000	     35.00345437	      2.42175241	     -4.76779351	    -26.55364558	      5.53114166	    -13.10696625	      0.00000000	    -10.94154448	     -8.03538308	      2.28953221
      3.76000000	     -1.85926043	      3.20432705	     -8.76292404	     -0.69888381	      0.89624564	      0.23932811	     -6.75902925	     -2.21187514	      3.34191836	    -40.19587014	     15.04586908	      0.89517448	      0.00000000	     35.22047369	      2.93107938	     -4.96927790	    -27.67426183	      5.49787491	    -13.06288756	      0.00000000	    -10.80105747	     -8.59612698	      2.15132226
      3.76500000	     -1.87217285	      3.64183802	     -8.66774753	     -0.69038697	      0.89608971	      0.23879221	     -6.02036348	     -2.85899840	      2.90537648	    -42.06422539	     13.34944842	      1.15880576	      0.00000000	     35.35441532	      3.43792529	     -5.18034364	    -28.68834802	      5.59574918	    -13.01275141	      0.00000000	    -10.67526262	     -9.13785741	      2.01450944
      3.77000000	     -1.86547132	      4.06855228	     -8.57077314	     -0.68191638	      0.89598578	      0.23824217	     -5.26267530	     -3.49312438	      2.51071880	    -43.94623796	     11.57258065	      1.27400295	      0.00000000	     35.40562934	      3.94561774	     -5.38915878	    -29.59925111	      5.83459869	    -12.94648256	      0.00000000	    -10.57392815	     -9.66225966	      1.86550073
      3.77500000	     -1.78735490	      4.46560679	     -8.45286168	     -0.67344804	      0.89603327	      0.23767157	     -4.56682015	     -4.09312974	      2.13889701	    -45.79750625	      9.70178243	      1.19088355	      0.00000000	     35.30784746	      4.46129426	     -5.55577137	    -30.39659299	      6.22348479	    -12.86167120	      0.00000000	    -10.56484365	    -10.15670797	      1.67739655
      3.78000000	     -1.83401375	      4.87788440	     -8.37043394	     -0.66508492	      0.89590710	      0.23705206	     -3.66075832	     -4.70717095	      1.83318971	    -47.70371625	      7.88708911	      1.08990785	      0.00000000	     35.30674453	      4.95272829	     -5.79941388	    -31.12275012	      6.71416386	    -12.75079596	      0.00000000	    -10.40073975	    -10.63027066	      1.54694027
      3.78500000	     -1.74947475	      5.26110114	     -8.23402693	     -0.65670283	      0.89604368	      0.23637804	     -2.91071569	     -5.28858593	      1.50615740	    -49.52197660	      6.01520453	      0.73042566	      0.00000000	     35.08311319	      5.49358275	     -5.92791962	    -31.72135904	      7.32826738	    -12.64769001	      0.00000000	    -10.40571969	    -11.07896530	      1.32790943
      3.79000000	     -1.79639493	      5.61488939	     -8.12911577	     -0.64846933	      0.89604809	      0.23574699	     -1.96430197	     -5.80337622	      1.28210165	    -51.34835655	      4.19341809	      0.23992764	      0.00000000	     34.97008035	      5.95170949	     -6.13552965	    -32.27759872	      8.05181723	    -12.44326485	      0.00000000	    -10.25894554	    -11.46776133	      1.15807946
      3.79500000	     -1.77881325	      5.96689438	     -7.98491780	     -0.64025263	      0.89621925	      0.23503706	     -1.08724947	     -6.31768651	      1.03719937	    -53.10396337	      2.45037476	     -0.41262327	      0.00000000	     34.72256679	      6.46357384	     -6.25713280	    -32.72164538	      8.81832428	    -12.27228002	      0.00000000	    -10.19786376	    -11.84862195	      0.92123616
      3.80000000	     -1.70545049	      6.36140930	     -7.81482154	     -0.63204101	      0.89653746	      0.23422797	     -0.26178026	     -6.88710273	      0.78650629	    -54.80233242	      0.88665373	     -1.13677028	      0.00000000	     34.36073782	      7.06138589	     -6.32020616	    -33.05908516	      9.58810506	    -12.12261447	      0.00000000	    -10.20234046	    -12.26489600	      0.62009725
      3.80500000	     -1.73864743	      6.65929798	     -7.66382750	     -0.62408463	      0.89680665	      0.23355318	      0.71566684	     -7.29735417	      0.61699288	    -56.46934218	     -0.56659176	     -2.10011386	      0.00000000	     34.09616048	      7.50910422	     -6.45022547	    -33.38212449	     10.38941398	    -11.91876891	      0.00000000	    -10.11931063	    -12.57077963	      0.34161962
      3.81000000	     -1.70566012	      7.03693823	     -7.48051684	     -0.61598823	      0.89724182	      0.23273776	      1.60359968	     -7.81291038	      0.43457492	    -58.05214205	     -1.68989261	     -3.02560201	      0.00000000	     33.68767881	      8.10106870	     -6.45771315	    -33.57403311	     11.20829262	    -11.73115392	      0.00000000	    -10.08217321	    -12.94797705	      0.00264692
      3.81500000	     -1.78957194	      7.30413949	     -7.31366627	     -0.60818044	      0.89765499	      0.23205420	      2.65219847	     -8.14496947	      0.33917150	    -59.59280924	     -2.66972584	     -4.16947205	      0.00000000	     33.39601547	      8.53363178	     -6.48939295	    -33.76743044	     11.98605076	    -11.50632770	      0.00000000	     -9.95272157	    -13.19946052	     -0.30560139
      3.82000000	     -1.78936763	      7.63859884	     -7.11408833	     -0.60034872	      0.89824969	      0.23126978	      3.60410424	     -8.57457308	      0.21247944	    -61.06363361	     -3.26936741	     -5.24125922	      0.00000000	     32.97593768	      9.07654813	     -6.48488601	    -33.87381504	     12.71178936	    -11.30568594	      0.00000000	     -9.92515790	    -13.52420959	     -0.67786828
